<svg width="190" height="44" viewBox="0 0 190 44" fill="none" xmlns="http://www.w3.org/2000/svg">
  <path
    d="M43.0462 37.3159C43.7352 37.6978 44.6209 37.9843 44.5225 36.361C44.4241 34.7377 41.8652 33.4964 40.8811 32.3505C37.1412 28.2446 33.4998 23.9476 29.7599 19.6507C25.0198 14.0636 19.8549 8.82893 14.3084 3.99074L11.7496 1.41258L10.667 0.648677C10.3717 0.362214 10.0765 -0.401687 9.28916 0.266726C8.50182 0.935138 9.5844 1.31709 9.19073 1.89002C8.79707 2.46294 8.89548 1.9855 8.69865 1.9855L8.10815 1.41258L7.51765 1.79452C7.32081 1.9855 8.00973 1.60355 8.00973 1.60355C8.00973 1.60355 8.10815 1.50807 8.10815 1.41258L8.60023 1.9855C8.20656 1.89002 7.61606 1.9855 7.22239 3.03586C6.82872 4.08623 8.20656 4.27721 8.60023 4.75464C10.5686 6.95086 12.0448 9.14707 13.9148 11.5343C15.4292 13.4711 17.2973 15.1218 19.4261 16.4041L21.7881 18.9823C18.934 18.8868 15.9815 18.8868 13.1274 18.9823C10.8313 18.8703 8.53011 18.9022 6.23822 19.0778H5.15563L3.48254 19.3642C2.99046 19.3642 2.20312 19.0778 2.00629 19.7462L0.530029 20.0326V20.5101L2.00629 20.7011C2.30154 21.1785 3.08887 20.7011 3.28571 21.274C3.48254 21.8469 3.18729 21.465 2.89204 21.5604L0.530029 20.9875V23.7567C5.79201 24.3 11.0886 24.4596 16.3752 24.2341H21.296C16.7689 27.7671 12.3401 31.4911 9.19073 36.4565L9.38757 36.6475H10.1749C10.3717 36.4565 10.7654 36.6475 9.87966 37.2204C8.9939 37.7933 11.1591 38.5572 11.848 39.2256C16.2014 35.9787 20.3124 32.4368 24.1501 28.6265C23.6257 32.5402 23.7921 36.512 24.6422 40.3715V41.3264C24.6422 41.7083 24.8391 42.1857 24.8391 42.6632C24.8391 43.1406 24.5438 44 25.528 44C26.5122 44 26.1185 43.0451 26.8074 42.8542C27.4963 42.6632 27.2995 44.382 29.071 43.4271C30.8425 42.4722 29.2678 41.7083 29.2678 41.0399V40.1805C29.5631 36.17 30.1536 32.0641 29.8583 27.9581L37.7317 36.17L40.1921 38.3662C40.9795 39.1301 41.9637 40.6579 42.8494 40.085C43.7352 39.5121 41.6684 38.1753 41.8652 37.3159C42.0621 36.4565 42.2589 37.4114 42.751 37.6023M44.1288 38.7482L26.5122 40.1805L44.1288 38.7482Z"
    fill="#E64848" />
  <path fill-rule="evenodd" clip-rule="evenodd"
    d="M44.4506 8.66366L44.2522 5.93421H41.6734C40.4441 5.93478 39.2168 6.03258 38.0035 6.22666L31.854 5.93421L29.2752 5.73926V8.66366C29.2091 11.848 29.2091 15.0648 29.2752 18.3142V21.0436H31.854C33.1162 21.0433 34.3764 20.9455 35.6231 20.7512L41.6734 21.0436H44.3514V18.3142C44.5498 15.0648 44.5828 11.848 44.4506 8.66366Z"
    fill="#E64848" />
  <path
    d="M80.2331 33.928H67.3864L65.3357 40.0623H56.53L69.0148 5.38232H78.7252L91.21 40.0623H82.2837L80.2331 33.928ZM78.0618 27.4293L73.7796 14.6749L69.5576 27.4293H78.0618Z"
    fill="#303030" />
  <path d="M102.77 3.9375V40.0625H94.0999V3.9375H102.77Z" fill="#303030" />
  <path
    d="M114.438 38.3621C112.172 37.2889 110.296 35.6379 109.039 33.6099C107.718 31.3779 107.053 28.8713 107.111 26.3349C107.034 23.8079 107.724 21.3107 109.103 19.1186C110.338 17.0603 112.218 15.3853 114.502 14.3077C116.9 13.1901 119.554 12.6074 122.247 12.6074C124.939 12.6074 127.593 13.1901 129.991 14.3077C132.279 15.4013 134.175 17.0709 135.455 19.1186C136.804 21.3216 137.491 23.8112 137.447 26.3349C137.501 28.8671 136.789 31.3639 135.39 33.5512C134.111 35.5989 132.215 37.2686 129.927 38.3621C127.529 39.4797 124.875 40.0624 122.182 40.0624C119.49 40.0624 116.836 39.4797 114.438 38.3621V38.3621ZM126.521 31.2631C127.742 30.0897 128.32 28.447 128.32 26.3349C128.32 24.2228 127.742 22.5801 126.585 21.4067C126.037 20.8642 125.371 20.4326 124.629 20.1395C123.888 19.8465 123.087 19.6986 122.279 19.7053C121.458 19.6786 120.641 19.8171 119.886 20.1112C119.13 20.4052 118.455 20.8476 117.908 21.4067C116.751 22.5019 116.173 24.1446 116.173 26.3349C116.173 28.5252 116.751 30.168 117.908 31.2631C118.436 31.8132 119.089 32.2507 119.822 32.5447C120.555 32.8387 121.35 32.982 122.15 32.9645C122.968 32.9722 123.779 32.825 124.531 32.5322C125.283 32.2393 125.961 31.8072 126.521 31.2631V31.2631Z"
    fill="#303030" />
  <path
    d="M154.127 13.9243C155.632 13.0396 157.365 12.5836 159.125 12.6084V21.4008H156.78C154.62 21.4008 153.016 21.8794 151.967 22.7765C150.918 23.6737 150.362 25.2289 150.362 27.4419V40.0624H141.785V12.9074H150.362V17.4532C151.311 16.0044 152.601 14.7948 154.127 13.9243V13.9243Z"
    fill="#303030" />
  <path
    d="M189.335 28.2689H169.337C169.346 29.6985 169.961 31.0678 171.051 32.0823C172.068 32.9505 173.413 33.4141 174.797 33.373C177.019 33.373 178.543 32.5516 179.431 30.7916H188.827C188.323 32.5244 187.437 34.1423 186.225 35.5437C184.941 36.9714 183.309 38.0974 181.463 38.829C179.472 39.6687 177.303 40.0895 175.114 40.0611C172.481 40.0891 169.883 39.504 167.56 38.3597C165.376 37.2785 163.587 35.6253 162.417 33.6077C161.134 31.3703 160.5 28.864 160.576 26.3329C160.503 23.8089 161.114 21.3081 162.354 19.0581C163.558 17.0644 165.339 15.4191 167.496 14.3061C169.821 13.1998 172.396 12.6178 175.012 12.6076C177.627 12.5974 180.207 13.1593 182.542 14.2474C184.689 15.3008 186.454 16.912 187.621 18.8821C188.912 21.0321 189.548 23.4649 189.462 25.9222C189.482 26.7063 189.439 27.4906 189.335 28.2689V28.2689ZM180.447 23.7515C180.48 23.1188 180.353 22.4877 180.078 21.9075C179.803 21.3274 179.386 20.814 178.86 20.4075C177.781 19.5637 176.4 19.1241 174.987 19.1755C173.629 19.1522 172.305 19.5671 171.242 20.3488C170.182 21.2251 169.523 22.4421 169.401 23.7515H180.447Z"
    fill="#303030" />
</svg>