<svg width="70" height="62" viewBox="0 0 70 62" fill="none" xmlns="http://www.w3.org/2000/svg">
  <g clip-path="url(#clip0_7602_1744)">
    <path
      d="M56.186 35.7172C56.8204 33.4422 57.1704 31.0578 57.1704 28.5859C57.1704 14.0281 45.3579 2.22656 30.811 2.22656C16.2423 2.22656 4.45166 14.0391 4.45166 28.5859C4.45166 43.1328 16.2423 54.9453 30.811 54.9453C33.3923 54.9453 35.897 54.5734 38.2485 53.8844"
      stroke="#E5E7EB" stroke-width="4" stroke-miterlimit="10" stroke-linecap="round"
      stroke-linejoin="round" />
    <path
      d="M50.8597 35.7174C51.669 33.4861 52.0956 31.0908 52.0956 28.5861C52.0956 16.8393 42.5581 7.30176 30.8112 7.30176C19.0534 7.30176 9.52686 16.8393 9.52686 28.5861C9.52686 40.333 19.0534 49.8705 30.8112 49.8705C32.9222 49.8705 34.9565 49.5643 36.8706 48.9846"
      stroke="#E5E7EB" stroke-width="4" stroke-miterlimit="10" stroke-linecap="round"
      stroke-linejoin="round" />
    <path fill-rule="evenodd" clip-rule="evenodd"
      d="M24.5328 27.4587V24.8419C24.5328 23.1068 25.2221 21.4428 26.449 20.2159C27.6758 18.9891 29.3398 18.2998 31.0749 18.2998C32.81 18.2998 34.474 18.9891 35.7008 20.2159C36.9277 21.4428 37.617 23.1068 37.617 24.8419V27.4587C38.311 27.4587 38.9766 27.7344 39.4673 28.2251C39.9581 28.7159 40.2338 29.3815 40.2338 30.0755V36.6176C40.2338 37.3116 39.9581 37.9772 39.4673 38.4679C38.9766 38.9587 38.311 39.2344 37.617 39.2344H24.5328C23.8388 39.2344 23.1732 38.9587 22.6825 38.4679C22.1917 37.9772 21.916 37.3116 21.916 36.6176V30.0755C21.916 29.3815 22.1917 28.7159 22.6825 28.2251C23.1732 27.7344 23.8388 27.4587 24.5328 27.4587ZM35.0001 24.8419V27.4587H27.1497V24.8419C27.1497 23.8008 27.5632 22.8024 28.2993 22.0663C29.0355 21.3302 30.0339 20.9166 31.0749 20.9166C32.1159 20.9166 33.1143 21.3302 33.8505 22.0663C34.5866 22.8024 35.0001 23.8008 35.0001 24.8419Z"
      fill="#E64848" />
    <circle cx="50.7467" cy="48.5001" r="14.1915" fill="white" />
    <path fill-rule="evenodd" clip-rule="evenodd"
      d="M50.5 63C54.3456 63 58.0338 61.4723 60.753 58.753C63.4723 56.0338 65 52.3456 65 48.5C65 44.6544 63.4723 40.9662 60.753 38.247C58.0338 35.5277 54.3456 34 50.5 34C46.6544 34 42.9662 35.5277 40.247 38.247C37.5277 40.9662 36 44.6544 36 48.5C36 52.3456 37.5277 56.0338 40.247 58.753C42.9662 61.4723 46.6544 63 50.5 63ZM48.1564 43.5936C47.8146 43.2634 47.3568 43.0807 46.8815 43.0848C46.4063 43.089 45.9517 43.2796 45.6156 43.6156C45.2796 43.9517 45.089 44.4063 45.0848 44.8815C45.0807 45.3568 45.2634 45.8146 45.5936 46.1564L47.9371 48.5L45.5936 50.8436C45.4205 51.0108 45.2824 51.2108 45.1874 51.4319C45.0924 51.653 45.0424 51.8909 45.0403 52.1315C45.0382 52.3722 45.0841 52.6109 45.1752 52.8336C45.2663 53.0564 45.4009 53.2587 45.5711 53.4289C45.7413 53.5991 45.9436 53.7337 46.1664 53.8248C46.3891 53.9159 46.6278 53.9618 46.8685 53.9597C47.1091 53.9576 47.347 53.9076 47.5681 53.8126C47.7892 53.7176 47.9892 53.5795 48.1564 53.4064L50.5 51.0629L52.8436 53.4064C53.1854 53.7366 53.6432 53.9193 54.1185 53.9152C54.5937 53.911 55.0483 53.7204 55.3844 53.3844C55.7204 53.0483 55.911 52.5937 55.9152 52.1185C55.9193 51.6432 55.7366 51.1854 55.4064 50.8436L53.0629 48.5L55.4064 46.1564C55.7366 45.8146 55.9193 45.3568 55.9152 44.8815C55.911 44.4063 55.7204 43.9517 55.3844 43.6156C55.0483 43.2796 54.5937 43.089 54.1185 43.0848C53.6432 43.0807 53.1854 43.2634 52.8436 43.5936L50.5 45.9371L48.1564 43.5936Z"
      fill="#E64848" />
  </g>
  <defs>
    <clipPath id="clip0_7602_1744">
      <rect width="70" height="62" fill="white" />
    </clipPath>
  </defs>
</svg>