<svg width="70" height="62" viewBox="0 0 70 62" fill="none" xmlns="http://www.w3.org/2000/svg">
  <g clip-path="url(#clip0_8901_7462)">
    <path
      d="M56.186 35.7172C56.8204 33.4422 57.1704 31.0578 57.1704 28.5859C57.1704 14.0281 45.3579 2.22656 30.811 2.22656C16.2423 2.22656 4.45166 14.0391 4.45166 28.5859C4.45166 43.1328 16.2423 54.9453 30.811 54.9453C33.3923 54.9453 35.897 54.5734 38.2485 53.8844"
      stroke="#E5E7EB" stroke-width="4" stroke-miterlimit="10" stroke-linecap="round"
      stroke-linejoin="round" />
    <path
      d="M50.8594 35.7171C51.6688 33.4859 52.0954 31.0906 52.0954 28.5859C52.0954 16.839 42.5579 7.30151 30.811 7.30151C19.0532 7.30151 9.52661 16.839 9.52661 28.5859C9.52661 40.3328 19.0532 49.8703 30.811 49.8703C32.9219 49.8703 34.9563 49.564 36.8704 48.9843"
      stroke="#E5E7EB" stroke-width="4" stroke-miterlimit="10" stroke-linecap="round"
      stroke-linejoin="round" />
    <g clip-path="url(#clip1_8901_7462)">
      <path
        d="M30.9687 25.418C28.5429 25.4101 26.9062 27.2539 26.9414 29.3672C26.9707 31.2371 26.7949 33.1121 26.4191 34.9336C26.3117 35.4062 26.6388 35.9344 27.1465 36.0418C27.6191 36.1443 28.1472 35.8221 28.2547 35.3144C28.6597 33.3566 28.8453 31.3457 28.816 29.373C28.8008 28.3203 29.5586 27.2851 30.9414 27.293C32.1668 27.3125 33.1773 28.284 33.1922 29.4609C33.2263 31.3008 33.0847 33.2207 32.7773 35.0664C32.6943 35.539 33.041 36.0574 33.5535 36.1453C34.3297 36.2723 34.5984 35.5547 34.6277 35.3691C34.9499 33.4512 35.1011 31.4199 35.0672 29.4668C35.0312 27.2461 33.1953 25.4492 30.9687 25.418ZM40.7695 26.9531C40.6572 26.4805 40.1636 26.123 39.6511 26.2351C39.1785 26.3474 38.8261 26.8504 38.9383 27.3531C39.1238 28.193 39.1287 28.818 39.1238 29.7601C39.1189 30.2777 39.534 30.7023 40.0515 30.7074C40.564 30.7074 40.9937 30.2926 40.9988 29.775C41.0039 28.9141 41.0117 28.0547 40.7695 26.9531ZM39.1679 23.4101C37.2636 20.7004 34.1523 19.0469 30.8359 19C28.1117 18.9658 25.5937 19.9703 23.7187 21.85C21.9074 23.6613 20.932 26.0687 20.9711 28.6312L20.9662 29.4711C20.9857 29.9922 21.391 30.4219 21.9086 30.4375C21.9183 30.4414 21.9281 30.4414 21.9379 30.4414C22.4105 30.4414 22.8605 30.0363 22.8402 29.5285L22.8451 28.6058C22.8508 26.5547 23.6269 24.625 25.0781 23.1758C26.5965 21.6621 28.6472 20.8469 30.8476 20.8762C33.5574 20.8801 36.1093 22.2676 37.6679 24.4844C37.9658 24.909 38.5468 25.0117 38.9715 24.7139C39.3633 24.4141 39.5 23.8359 39.1679 23.4101Z"
        fill="#E64848" />
      <path opacity="0.4"
        d="M31.004 28.6092C30.4864 28.6092 30.1016 29.0291 30.1016 29.5116C30.1456 32.3338 29.7843 35.0545 29.0176 37.7733C28.879 38.1913 29.0704 38.9998 29.8868 38.9998C30.2969 38.9998 30.6727 38.7313 30.7899 38.3163C31.3173 36.4463 31.9657 33.4178 31.9423 29.5467C31.9415 29.0311 31.5235 28.6092 31.004 28.6092ZM26.6485 24.6444C26.2423 24.3163 25.6563 24.3748 25.3243 24.7772C24.3301 26.0077 23.7884 27.5663 23.8126 29.1522C23.837 30.6217 23.7198 32.0963 23.461 33.5311C23.3683 34.0038 23.7051 34.5272 24.213 34.6198C24.9989 34.7565 25.2724 34.0389 25.2716 33.8631C25.5499 32.3057 25.6817 30.7139 25.6524 29.1209C25.6719 27.9569 26.0469 26.8631 26.7462 25.9647C27.1094 25.5584 27.0509 24.9725 26.6485 24.6444ZM30.8868 22.2084C30.3204 22.194 29.7149 22.2623 29.1329 22.4038C28.6301 22.4858 28.3176 22.9936 28.4348 23.5315C28.5569 24.0342 29.0247 24.342 29.5325 24.2248C30.0001 24.1288 30.4415 24.078 30.8985 24.0819C33.8426 24.1258 36.2735 26.4842 36.3243 29.3397C36.3438 30.819 36.2706 32.2733 36.1046 33.7772C36.046 34.2897 36.4171 34.7186 36.9296 34.8123C37.5839 34.8553 37.9257 34.3487 37.9648 33.9873C38.1454 32.4346 38.2235 30.8721 38.1991 29.3116C38.1329 25.4569 34.8712 22.267 30.8868 22.2084Z"
        fill="#E64848" />
    </g>
    <circle cx="50.7468" cy="48.5" r="14.1915" fill="white" />
    <path fill-rule="evenodd" clip-rule="evenodd"
      d="M50.5 63C54.3456 63 58.0338 61.4723 60.753 58.753C63.4723 56.0338 65 52.3456 65 48.5C65 44.6544 63.4723 40.9662 60.753 38.247C58.0338 35.5277 54.3456 34 50.5 34C46.6544 34 42.9662 35.5277 40.247 38.247C37.5277 40.9662 36 44.6544 36 48.5C36 52.3456 37.5277 56.0338 40.247 58.753C42.9662 61.4723 46.6544 63 50.5 63ZM48.1564 43.5936C47.8146 43.2634 47.3568 43.0807 46.8815 43.0848C46.4063 43.089 45.9517 43.2796 45.6156 43.6156C45.2796 43.9517 45.089 44.4063 45.0848 44.8815C45.0807 45.3568 45.2634 45.8146 45.5936 46.1564L47.9371 48.5L45.5936 50.8436C45.4205 51.0108 45.2824 51.2108 45.1874 51.4319C45.0924 51.653 45.0424 51.8909 45.0403 52.1315C45.0382 52.3722 45.0841 52.6109 45.1752 52.8336C45.2663 53.0564 45.4009 53.2587 45.5711 53.4289C45.7413 53.5991 45.9436 53.7337 46.1664 53.8248C46.3891 53.9159 46.6278 53.9618 46.8685 53.9597C47.1091 53.9576 47.347 53.9076 47.5681 53.8126C47.7892 53.7176 47.9892 53.5795 48.1564 53.4064L50.5 51.0629L52.8436 53.4064C53.1854 53.7366 53.6432 53.9193 54.1185 53.9152C54.5937 53.911 55.0483 53.7204 55.3844 53.3844C55.7204 53.0483 55.911 52.5937 55.9152 52.1185C55.9193 51.6432 55.7366 51.1854 55.4064 50.8436L53.0629 48.5L55.4064 46.1564C55.7366 45.8146 55.9193 45.3568 55.9152 44.8815C55.911 44.4063 55.7204 43.9517 55.3844 43.6156C55.0483 43.2796 54.5937 43.089 54.1185 43.0848C53.6432 43.0807 53.1854 43.2634 52.8436 43.5936L50.5 45.9371L48.1564 43.5936Z"
      fill="#E64848" />
  </g>
  <defs>
    <clipPath id="clip0_8901_7462">
      <rect width="70" height="62" fill="white" />
    </clipPath>
    <clipPath id="clip1_8901_7462">
      <rect width="20" height="20" fill="white" transform="translate(21 19)" />
    </clipPath>
  </defs>
</svg>
  