<svg width="14" height="13" viewBox="0 0 14 13" fill="none" xmlns="http://www.w3.org/2000/svg">
  <g clip-path="url(#clip0_7602_4359)">
    <path
      d="M13.3733 6.64988C13.3733 6.20803 13.3374 5.76379 13.261 5.3291H7.13V7.83213H10.6409C10.4953 8.63941 10.0271 9.35354 9.34166 9.80733V11.4314H11.4363C12.6663 10.2993 13.3733 8.62747 13.3733 6.64988Z"
      fill="#4285F4" />
    <path
      d="M7.12997 13.0005C8.88305 13.0005 10.3615 12.4249 11.4386 11.4314L9.34401 9.80727C8.76124 10.2037 8.0089 10.4283 7.13236 10.4283C5.43661 10.4283 3.9988 9.28422 3.4829 7.74609H1.32141V9.42035C2.42485 11.6153 4.67232 13.0005 7.12997 13.0005Z"
      fill="#34A853" />
    <path
      d="M3.48055 7.74597C3.20827 6.93869 3.20827 6.06454 3.48055 5.25727V3.58301H1.32144C0.399525 5.41968 0.399525 7.58356 1.32144 9.42023L3.48055 7.74597Z"
      fill="#FBBC04" />
    <path
      d="M7.12997 2.57273C8.05667 2.5584 8.95231 2.90711 9.62345 3.54719L11.4792 1.69142C10.3041 0.587982 8.74452 -0.0186691 7.12997 0.000438027C4.67232 0.000438027 2.42485 1.3857 1.32141 3.58302L3.48051 5.25728C3.99402 3.71677 5.43422 2.57273 7.12997 2.57273Z"
      fill="#EA4335" />
  </g>
  <defs>
    <clipPath id="clip0_7602_4359">
      <rect width="13" height="13" fill="white" transform="translate(0.5)" />
    </clipPath>
  </defs>
</svg>