<svg width="19" height="19" viewBox="0 0 19 19" fill="none" xmlns="http://www.w3.org/2000/svg">
<path d="M9.17236 18.7524C14.1443 18.7524 18.1748 14.7219 18.1748 9.75C18.1748 4.77809 14.1443 0.747559 9.17236 0.747559C4.20045 0.747559 0.169922 4.77809 0.169922 9.75C0.169922 14.7219 4.20045 18.7524 9.17236 18.7524Z" fill="#3396FF"/>
<path d="M5.67603 7.44703C7.60698 5.564 10.7377 5.564 12.6687 7.44703L12.9011 7.67364C12.9977 7.76777 12.9977 7.92043 12.9011 8.01456L12.1061 8.78981C12.0578 8.83688 11.9796 8.83688 11.9313 8.78981L11.6115 8.47795C10.2644 7.16432 8.08034 7.16432 6.73322 8.47795L6.39072 8.81192C6.34244 8.85899 6.26419 8.85899 6.21591 8.81192L5.42094 8.03667C5.32437 7.94254 5.32437 7.78989 5.42094 7.69575L5.67603 7.44703ZM14.3128 9.05027L15.0203 9.74023C15.1169 9.83436 15.1169 9.98702 15.0203 10.0812L11.83 13.1922C11.7335 13.2864 11.5769 13.2864 11.4804 13.1922L9.21609 10.9842C9.19195 10.9607 9.15282 10.9607 9.12868 10.9842L6.8644 13.1922C6.76788 13.2864 6.61134 13.2864 6.51477 13.1922L3.32437 10.0811C3.22782 9.98698 3.22782 9.83432 3.32437 9.74019L4.0319 9.05023C4.12845 8.9561 4.28499 8.9561 4.38154 9.05023L6.64586 11.2583C6.67 11.2818 6.70912 11.2818 6.73327 11.2583L8.9975 9.05023C9.09402 8.95605 9.25056 8.95605 9.34713 9.05023L11.6115 11.2583C11.6356 11.2818 11.6747 11.2818 11.6989 11.2583L13.9632 9.05027C14.0597 8.9561 14.2163 8.9561 14.3128 9.05027Z" fill="white"/>
</svg>
